<svg width="18" height="18" viewBox="0 0 18 18" fill="none" xmlns="http://www.w3.org/2000/svg">
<path fill-rule="evenodd" clip-rule="evenodd" d="M12.8481 14.0265C11.565 15.0529 9.93751 15.6666 8.16666 15.6666C4.02453 15.6666 0.666664 12.3088 0.666664 8.16663C0.666664 4.02449 4.02453 0.666626 8.16666 0.666626C12.3088 0.666626 15.6667 4.02449 15.6667 8.16663C15.6667 9.93747 15.0529 11.565 14.0266 12.848L17.0893 15.9107L15.9108 17.0892L12.8481 14.0265ZM14 8.16663C14 11.3883 11.3883 14 8.16666 14C4.945 14 2.33333 11.3883 2.33333 8.16663C2.33333 4.94497 4.945 2.33329 8.16666 2.33329C11.3883 2.33329 14 4.94497 14 8.16663Z" fill="#5C5F60"/>
</svg>
