<?xml version="1.0" encoding="utf-8"?><svg viewBox="0 0 24 24" xmlns="http://www.w3.org/2000/svg" xmlns:xlink="http://www.w3.org/1999/xlink"><style>:root>svg{display:none}:root>svg:target{display:block}</style><svg viewBox="0 0 24 24" id="cart" xmlns="http://www.w3.org/2000/svg"><path fill-rule="evenodd" clip-rule="evenodd" d="M4.798 4H2V2h4.44l.634 3.195a1 1 0 0 0 .98.805h10.06c2.095 0 3.544 2.092 2.809 4.053l-1.5 4A3 3 0 0 1 16.614 16h-5.33a5 5 0 0 1-4.904-4.027L4.798 4Zm2.826 3.97.718 3.614A3 3 0 0 0 11.284 14h5.33a1 1 0 0 0 .936-.649l1.5-4A1 1 0 0 0 18.114 8H8.054c-.145 0-.289-.01-.43-.03Z"/><path d="M10 19.5a1.5 1.5 0 1 1-3 0 1.5 1.5 0 0 1 3 0Zm7.5 1.5a1.5 1.5 0 1 0 0-3 1.5 1.5 0 0 0 0 3Z"/></svg><svg viewBox="0 0 24 24" id="heart" xmlns="http://www.w3.org/2000/svg"><path fill-rule="evenodd" clip-rule="evenodd" d="M12.243 4.757a6 6 0 0 1 8.485 8.486l-8.485 8.485-8.486-8.485a6 6 0 0 1 8.486-8.486Zm7.07 1.415a4 4 0 0 0-5.656 0l-1.414 1.414-1.415-1.414a4 4 0 1 0-5.656 5.657l7.07 7.07 7.072-7.07a4 4 0 0 0 0-5.657Z"/></svg><svg viewBox="0 0 20 20" id="like" xmlns="http://www.w3.org/2000/svg"><path fill-rule="evenodd" clip-rule="evenodd" d="m9.537 5.196-.067.068a4.53 4.53 0 0 0-6.406 6.406l3.733 3.733a4.53 4.53 0 0 0 6.406 0l3.733-3.733a4.53 4.53 0 0 0-6.406-6.406l-.462.462-.53-.53Zm4.727 11.268 3.733-3.734A6.03 6.03 0 0 0 10 3.731a6.03 6.03 0 0 0-7.997 9l3.733 3.733a6.03 6.03 0 0 0 8.528 0Z"/></svg><svg viewBox="0 0 12 12" id="location" xmlns="http://www.w3.org/2000/svg"><path fill-rule="evenodd" clip-rule="evenodd" d="M3.03 1.777C1.563 3.18 1.387 5.399 2.616 6.998L6 11.4l3.384-4.402c1.229-1.599 1.053-3.817-.414-5.221-1.64-1.57-4.3-1.57-5.94 0ZM6 6.6A1.8 1.8 0 1 0 6 3a1.8 1.8 0 0 0 0 3.6Z"/></svg><svg viewBox="0 0 24 24" id="message" xmlns="http://www.w3.org/2000/svg"><path d="M17 9a1 1 0 0 1-1 1H8a1 1 0 0 1 0-2h8a1 1 0 0 1 1 1ZM7 13a1 1 0 0 0 1 1h8a1 1 0 1 0 0-2H8a1 1 0 0 0-1 1Z"/><path fill-rule="evenodd" clip-rule="evenodd" d="M6 3a4 4 0 0 0-4 4v12c0 1.881 1.936 3.14 3.655 2.375l4.57-2.03A3.998 3.998 0 0 1 11.848 19H18a4 4 0 0 0 4-4V7a4 4 0 0 0-4-4H6Zm12 2H6a2 2 0 0 0-2 2v12a.6.6 0 0 0 .843.548l4.569-2.03A6 6 0 0 1 11.849 17H18a2 2 0 0 0 2-2V7a2 2 0 0 0-2-2Z"/></svg></svg>